<svg width="20" height="20" viewBox="0 0 20 20" fill="none" xmlns="http://www.w3.org/2000/svg">
<g id="rounded-double-right 1">
<path id="Vector" d="M15.7675 9.44L11.7035 5.376C11.3935 5.066 10.8915 5.066 10.5815 5.376L10.2315 5.726C9.92152 6.036 9.92152 6.538 10.2315 6.848L12.8255 9.442C12.9815 9.598 13.0575 9.8 13.0575 10.002C13.0575 10.204 12.9795 10.408 12.8255 10.562L10.2315 13.156C9.92152 13.466 9.92152 13.968 10.2315 14.278L10.5815 14.628C10.8915 14.934 11.3935 14.934 11.7035 14.624L15.7675 10.56C15.9235 10.404 15.9995 10.202 15.9995 10C15.9995 9.798 15.9215 9.594 15.7675 9.44ZM9.76752 9.44L5.70352 5.376C5.39352 5.066 4.89152 5.066 4.58152 5.376L4.23152 5.726C3.92152 6.036 3.92152 6.538 4.23152 6.848L6.82552 9.442C6.98152 9.598 7.05752 9.8 7.05752 10.002C7.05752 10.204 6.97952 10.408 6.82552 10.562L4.23152 13.156C3.92152 13.466 3.92152 13.968 4.23152 14.278L4.58152 14.628C4.89152 14.934 5.39352 14.934 5.70352 14.624L9.76752 10.56C9.92352 10.404 9.99952 10.202 9.99952 10C9.99952 9.798 9.92152 9.594 9.76752 9.44Z" fill="white"/>
</g>
</svg>
