<svg width="16" height="16" viewBox="0 0 16 16" fill="none" xmlns="http://www.w3.org/2000/svg">
<g id="rounded-double-right 1">
<path id="Vector" d="M12.6144 7.55195L9.3632 4.30075C9.1152 4.05275 8.7136 4.05275 8.4656 4.30075L8.1856 4.58075C7.9376 4.82875 7.9376 5.23035 8.1856 5.47835L10.2608 7.55355C10.3856 7.67835 10.4464 7.83995 10.4464 8.00155C10.4464 8.16315 10.384 8.32635 10.2608 8.44955L8.1856 10.5247C7.9376 10.7727 7.9376 11.1743 8.1856 11.4223L8.4656 11.7023C8.7136 11.9471 9.1152 11.9471 9.3632 11.6991L12.6144 8.44795C12.7392 8.32315 12.8 8.16155 12.8 7.99995C12.8 7.83835 12.7376 7.67515 12.6144 7.55195ZM7.8144 7.55195L4.5632 4.30075C4.3152 4.05275 3.9136 4.05275 3.6656 4.30075L3.3856 4.58075C3.1376 4.82875 3.1376 5.23035 3.3856 5.47835L5.4608 7.55355C5.5856 7.67835 5.6464 7.83995 5.6464 8.00155C5.6464 8.16315 5.584 8.32635 5.4608 8.44955L3.3856 10.5247C3.1376 10.7727 3.1376 11.1743 3.3856 11.4223L3.6656 11.7023C3.9136 11.9471 4.3152 11.9471 4.5632 11.6991L7.8144 8.44795C7.9392 8.32315 8 8.16155 8 7.99995C8 7.83835 7.9376 7.67515 7.8144 7.55195Z" fill="black"/>
</g>
</svg>
